PathFileType	3	(X/Y/Z)	D:\minhoCalibration\240510\subject1_KPNP\preferred\preferred18.trc
DataRate	CameraRate	NumFrames	NumMarkers	Units	OrigDataRate	OrigDataStartFrame	OrigNumFrames
200.0	200.0	12	10	mm	200.0	1201	152	
Frame#	Time	Left_Ankle_Outer1			Left_Ankle_Inner1			Left_Knee_Outer1			Left_Knee_Inner1			Left_Wrist1			Right_Wrist1			Right_Knee_Inner1			Right_Knee_Outer1			Right_Ankle_Inner1			Right_Ankle_Outer1			
		X1	Y1	Z1	X2	Y2	Z2	X3	Y3	Z3	X4	Y4	Z4	X5	Y5	Z5	X6	Y6	Z6	X7	Y7	Z7	X8	Y8	Z8	X9	Y9	Z9	X10	Y10	Z10	
1201	5.995	-509.65845	159.59734	-586.70813	-542.9845	174.83955	-538.98334	-360.17834	585.40656	-563.802	-436.8147	569.53381	-491.4288	-417.84531	1039.6016	-771.50281	-627.50964	1165.4778	-490.63467	-404.42441	892.57178	-173.56273	-485.66321	979.42358	-129.87859	-789.6026	804.69379	-359.61127	-870.25934	840.04181	-293.91956
1202	6	-513.59003	159.20483	-584.09528	-545.77618	174.96568	-536.16199	-361.72144	584.76245	-564.87988	-437.56015	569.37946	-491.05002	-424.1669	1037.1633	-774.82849	-619.82019	1170.7948	-486.22473	-385.09735	903.46643	-174.57263	-458.26175	995.13721	-130.99326	-792.47247	816.29736	-316.30374	-864.59912	859.09106	-244.88664
1203	6.005	-517.34808	159.23409	-582.05341	-548.724	174.62193	-533.27466	-363.36288	584.42413	-565.50885	-438.81189	570.44458	-488.20395	-430.74792	1034.2877	-777.1618	-613.40826	1176.6389	-483.88693	-367.89902	913.28479	-175.8248	-431.88159	1009.563	-134.41096	-792.26208	828.60248	-270.64642	-854.33405	877.81628	-195.55972
1204	6.01	-521.46661	159.1702	-579.74042	-552.28809	174.6602	-530.55621	-365.85156	583.42908	-565.02527	-440.60806	569.65387	-487.56656	-436.67551	1031.8267	-778.91254	-606.44531	1181.9543	-481.15121	-352.23508	922.29517	-177.58319	-407.70349	1022.5162	-139.30475	-788.26282	840.81653	-221.72162	-840.62091	896.46582	-144.53627
1205	6.015	-525.86066	158.96515	-577.30756	-555.83344	174.12709	-527.82947	-367.80508	582.87146	-564.02386	-442.0632	570.21356	-484.73886	-442.754	1029.0181	-779.98657	-599.96826	1186.6631	-480.22739	-338.16782	931.08459	-179.3613	-386.42645	1034.0996	-145.36877	-779.84271	852.19153	-169.15874	-822.53918	915.44684	-92.740189
1206	6.02	-530.24121	158.90028	-574.83099	-559.52051	173.87952	-525.11908	-369.64206	582.10431	-562.56079	-443.84207	569.8988	-483.28	-448.59106	1026.366	-780.35382	-594.15521	1190.9976	-479.6315	-325.70447	939.44598	-181.25	-367.92157	1044.0913	-152.15337	-766.85272	864.01123	-114.61922	-799.69043	935.47437	-39.912903
1207	6.025	-534.59875	158.81792	-572.33636	-563.14331	173.53667	-522.61609	-371.36954	581.133	-560.5896	-445.59457	569.73981	-481.41129	-453.93674	1023.6335	-780.82263	-588.75488	1194.8641	-479.91318	-315.16101	947.36981	-182.85159	-352.75342	1052.8276	-158.92827	-748.75513	877.44073	-60.079323	-772.13171	954.63519	10.573027
1208	6.03	-538.75482	158.50053	-569.93268	-566.72363	173.1456	-520.15375	-372.99747	580.02789	-558.38678	-447.9191	569.21124	-478.60425	-458.96072	1021.0384	-780.13763	-584.27917	1198.0359	-480.67535	-306.49191	954.67365	-184.27264	-341.08258	1060.4891	-165.22804	-725.01031	890.80237	-4.8092189	-740.04114	974.87115	61.181011
1209	6.035	-542.44562	158.29247	-567.80444	-569.82812	172.80533	-517.86713	-374.85767	578.58752	-555.77582	-449.62515	568.26355	-476.90329	-463.74106	1018.1558	-779.56323	-580.30835	1200.1086	-482.65903	-300.17783	961.26782	-185.21683	-332.72778	1067.2457	-170.70854	-695.97015	905.26941	48.423279	-703.71936	995.02338	108.93108
1210	6.04	-545.6676	158.02957	-565.96771	-572.81189	172.23563	-515.85809	-375.80554	577.80646	-553.47571	-450.9433	567.28619	-475.23621	-467.46997	1015.9339	-778.48285	-577.29871	1202.6029	-483.1521	-296.36749	967.3681	-185.65334	-327.53387	1073.0747	-175.29372	-662.1991	920.85541	99.467911	-661.89709	1014.5017	154.036
1211	6.045	-548.57257	157.5717	-564.27795	-575.4173	171.53908	-514.24371	-376.99219	576.63037	-551.03528	-452.9184	566.48981	-472.16223	-470.733	1013.6332	-776.57001	-574.67993	1203.6383	-486.01868	-295.30499	972.98315	-185.45963	-325.08798	1077.8859	-178.81635	-622.27722	936.59589	146.40463	-615.56049	1034.1163	195.68404
1212	6.05	-551.14465	156.92447	-562.97937	-577.67651	170.80998	-513.02148	-378.54813	575.30084	-548.46729	-453.55392	565.61603	-470.76608	-472.75751	1011.5714	-774.96924	-573.2981	1204.611	-487.06628	-296.68036	978.1535	-184.55347	-325.28018	1081.8918	-180.793	-578.50177	952.15637	187.21082	-564.79877	1052.7682	232.69298
